<svg xmlns="http://www.w3.org/2000/svg" xmlns:xlink="http://www.w3.org/1999/xlink" width="165" height="37.336" viewBox="0 0 165 37.336"><defs><style>.a{fill:#7c24ef;}.b{fill:#1660ea;}.c{clip-path:url(#a);}</style><clipPath id="a"><path class="a" d="M-228.291,544.282l.017-6.088,3.04,1.755a5.421,5.421,0,0,1,2.71,4.71l-.008,2.949Z" transform="translate(228.291 -538.194)"/></clipPath></defs><g transform="translate(4.002 -2.829)"><g transform="translate(35.009 12.937)"><path class="a" d="M1075.136-348.74h-2.657a.4.4,0,0,0-.4.4v1.141l-.388-.464a4.233,4.233,0,0,0-1.314-.876,4.587,4.587,0,0,0-2.016-.451,5.235,5.235,0,0,0-3.9,1.871,6.251,6.251,0,0,0-1.746,4.41,6.249,6.249,0,0,0,1.746,4.41,5.235,5.235,0,0,0,3.9,1.871,4.61,4.61,0,0,0,1.333-.194,4.438,4.438,0,0,0,1.036-.438,5.346,5.346,0,0,0,.738-.551q.344-.306.451-.425a1.9,1.9,0,0,0,.159-.194v1.026a3.293,3.293,0,0,1-.894,2.435,3.291,3.291,0,0,1-2.435.894,4.212,4.212,0,0,1-1.927-.456,4.4,4.4,0,0,1-1.158-.745c-.042-.045-.08-.092-.124-.14a.4.4,0,0,0-.28-.134.4.4,0,0,0-.292.108l-1.593,1.5a.4.4,0,0,0-.033.544,4.016,4.016,0,0,0,.688.675,8.836,8.836,0,0,0,1.138.783,7.176,7.176,0,0,0,1.639.663,7.549,7.549,0,0,0,2.065.282,6.552,6.552,0,0,0,4.76-1.846,6.11,6.11,0,0,0,1.9-4.56v-11.138A.4.4,0,0,0,1075.136-348.74Zm-3.937,8.208a2.8,2.8,0,0,1-2.065.9,2.628,2.628,0,0,1-2-.876,3.1,3.1,0,0,1-.82-2.208,3.082,3.082,0,0,1,.819-2.2,2.646,2.646,0,0,1,2-.87,2.811,2.811,0,0,1,2.065.894,2.983,2.983,0,0,1,.882,2.177,3,3,0,0,1-.88,2.185Z" transform="translate(-949.544 354.371)"/><path class="a" d="M965.857-347.5a4.533,4.533,0,0,0-3.509-1.489,4.082,4.082,0,0,0-1.958.5,5.321,5.321,0,0,0-1.207.8,6.408,6.408,0,0,0-.425.494v-1.043a.5.5,0,0,0-.5-.5H955.8a.5.5,0,0,0-.5.5v11.571a.5.5,0,0,0,.5.5h2.463a.5.5,0,0,0,.5-.5v-6.035a3.145,3.145,0,0,1,.694-2.184,2.4,2.4,0,0,1,1.871-.768,2.335,2.335,0,0,1,1.758.706,2.569,2.569,0,0,1,.683,1.859v6.423a.5.5,0,0,0,.5.5h2.462a.5.5,0,0,0,.5-.5v-6.811A5.734,5.734,0,0,0,965.857-347.5Z" transform="translate(-855.354 354.37)"/><g transform="translate(94.773 0.123)"><path class="a" d="M911.67-393.575a2.083,2.083,0,0,0-1.5-.526,1.873,1.873,0,0,0-1.388.526,1.886,1.886,0,0,0-.526,1.4,1.9,1.9,0,0,0,.519,1.4,1.877,1.877,0,0,0,1.4.526,2.088,2.088,0,0,0,1.5-.526,1.842,1.842,0,0,0,.551-1.4A1.838,1.838,0,0,0,911.67-393.575Z" transform="translate(-908.253 394.104)"/><path class="a" d="M489.36-343.51a.5.5,0,0,0-.5.5v2.582h.014v8.6a.5.5,0,0,0,.5.5h2.476a.5.5,0,0,0,.5-.5v-11.183a.5.5,0,0,0-.5-.5Z" transform="translate(-488.598 349.405)"/></g><path class="a" d="M796.34-375.828l-3.425-6.053.325-.174a3.516,3.516,0,0,0,.813-.562,7.4,7.4,0,0,0,.932-.989,5.329,5.329,0,0,0,.8-1.513,5.869,5.869,0,0,0,.338-2.014,5.632,5.632,0,0,0-1.745-4.186,6.052,6.052,0,0,0-4.406-1.711h-7.45a.5.5,0,0,0-.35.145.494.494,0,0,0-.145.351v16.951a.494.494,0,0,0,.145.351.5.5,0,0,0,.35.145h2.867a.5.5,0,0,0,.351-.145.5.5,0,0,0,.145-.351v-5.291a.494.494,0,0,1,.145-.35.494.494,0,0,1,.35-.145h2.541a.494.494,0,0,1,.433.256l3.171,5.769a.494.494,0,0,0,.433.256h2.962a.5.5,0,0,0,.423-.248.5.5,0,0,0,0-.491Zm-4.755-9.664a2.42,2.42,0,0,1-1.746.67h-3.471a.5.5,0,0,1-.35-.145.5.5,0,0,1-.145-.35v-3.753a.5.5,0,0,1,.145-.35.5.5,0,0,1,.35-.145h3.471a2.385,2.385,0,0,1,1.746.688,2.349,2.349,0,0,1,.695,1.739,2.2,2.2,0,0,1-.693,1.646Z" transform="translate(-703.092 393.281)"/><path class="b" d="M667.519-393.03h-2.463a.5.5,0,0,0-.35.145.494.494,0,0,0-.145.35v6.423l-.388-.464a4.44,4.44,0,0,0-1.319-.876,4.574,4.574,0,0,0-2.008-.45,5.647,5.647,0,0,0-4.235,1.895,6.488,6.488,0,0,0-1.8,4.636,6.486,6.486,0,0,0,1.8,4.636,5.645,5.645,0,0,0,4.235,1.9,4.681,4.681,0,0,0,1.325-.187,4.412,4.412,0,0,0,1.035-.432,5.06,5.06,0,0,0,.744-.551q.344-.306.451-.425a1.927,1.927,0,0,0,.159-.194v1.045a.5.5,0,0,0,.145.351.494.494,0,0,0,.35.145h2.463a.494.494,0,0,0,.35-.145.5.5,0,0,0,.145-.351v-16.951a.5.5,0,0,0-.495-.495Zm-3.859,14.15a2.855,2.855,0,0,1-2.177.977,2.855,2.855,0,0,1-2.178-.977,3.529,3.529,0,0,1-.9-2.49,3.5,3.5,0,0,1,.9-2.483,2.862,2.862,0,0,1,2.178-.969,2.861,2.861,0,0,1,2.177.969,3.5,3.5,0,0,1,.9,2.483A3.529,3.529,0,0,1,663.661-378.88Z" transform="translate(-590.434 393.28)"/><path class="b" d="M546.732-342.706a6.1,6.1,0,0,0-1.789-4.485,6.065,6.065,0,0,0-4.48-1.8,6.31,6.31,0,0,0-4.619,1.921,6.28,6.28,0,0,0-1.926,4.609,6.236,6.236,0,0,0,1.952,4.611,6.481,6.481,0,0,0,4.717,1.921,7.994,7.994,0,0,0,1.895-.225,7.087,7.087,0,0,0,1.5-.519,8.046,8.046,0,0,0,1.088-.67,6.808,6.808,0,0,0,.67-.531.367.367,0,0,0,.108-.262.37.37,0,0,0-.08-.229l-1.32-1.7a.371.371,0,0,0-.276-.143.372.372,0,0,0-.288.117l-.065.07a3.5,3.5,0,0,1-1.169.77,4.306,4.306,0,0,1-1.809.381,3.484,3.484,0,0,1-2.239-.707,2.877,2.877,0,0,1-1.088-1.732H546.6Zm-9.221-1.026a3.387,3.387,0,0,1,1.082-1.664,2.835,2.835,0,0,1,1.871-.637,2.75,2.75,0,0,1,1.858.651,2.849,2.849,0,0,1,.956,1.652Z" transform="translate(-483.687 354.37)"/><g transform="translate(44.905 0.121)"><path class="b" d="M490.267-393.585a2.071,2.071,0,0,0-1.5-.526,1.9,1.9,0,0,0-1.4.526,1.887,1.887,0,0,0-.526,1.4,1.885,1.885,0,0,0,.526,1.4,1.893,1.893,0,0,0,1.4.526,2.066,2.066,0,0,0,1.488-.526,1.836,1.836,0,0,0,.551-1.4,1.854,1.854,0,0,0-.544-1.4Z" transform="translate(-486.842 394.114)"/><path class="b" d="M489.36-343.51a.5.5,0,0,0-.5.5v2.582h.014v8.6a.5.5,0,0,0,.5.5h2.476a.5.5,0,0,0,.5-.5v-11.183a.5.5,0,0,0-.5-.5Z" transform="translate(-488.628 349.406)"/></g><path class="b" d="M406.785-395.08a6.528,6.528,0,0,0-1.138-.1q-3.982,0-3.982,4.354v1.664H399.88v3.077h1.789v9.1h3.465v-9.1h2.814v-3.077h-2.814V-390.7a1.309,1.309,0,0,1,.438-.995,1.558,1.558,0,0,1,1.1-.408,2.908,2.908,0,0,1,.786.08.393.393,0,0,0,.338-.071.394.394,0,0,0,.151-.31v-2.1a.4.4,0,0,0-.275-.376h0A7.017,7.017,0,0,0,406.785-395.08Z" transform="translate(-364.366 395.18)"/><g transform="translate(30.185 0.121)"><path class="b" d="M359.475-393.585a2.088,2.088,0,0,0-1.5-.526,1.881,1.881,0,0,0-1.39.526,1.887,1.887,0,0,0-.526,1.4,1.9,1.9,0,0,0,.519,1.4,1.871,1.871,0,0,0,1.4.526,2.083,2.083,0,0,0,1.5-.526,1.839,1.839,0,0,0,.549-1.4,1.841,1.841,0,0,0-.549-1.4Z" transform="translate(-356.056 394.114)"/><path class="b" d="M361.179-346.84H358.7a.5.5,0,0,0-.35.144.5.5,0,0,0-.145.35v11.572a.5.5,0,0,0,.145.35.5.5,0,0,0,.35.145h2.475a.5.5,0,0,0,.351-.145.5.5,0,0,0,.145-.35v-11.572A.5.5,0,0,0,361.179-346.84Z" transform="translate(-357.957 352.349)"/></g><path class="b" d="M254.713-347.5a4.534,4.534,0,0,0-3.514-1.489,4.084,4.084,0,0,0-1.958.5,5.3,5.3,0,0,0-1.207.8c-.151.159-.292.323-.426.494v-1.043a.5.5,0,0,0-.145-.35.5.5,0,0,0-.351-.145h-2.462a.5.5,0,0,0-.35.145.5.5,0,0,0-.145.35v11.572a.494.494,0,0,0,.145.35.494.494,0,0,0,.35.145h2.462a.494.494,0,0,0,.35-.145.5.5,0,0,0,.145-.35v-6.036a3.146,3.146,0,0,1,.7-2.184,2.394,2.394,0,0,1,1.871-.768,2.335,2.335,0,0,1,1.758.706,2.568,2.568,0,0,1,.682,1.859v6.423a.5.5,0,0,0,.5.495h2.462a.494.494,0,0,0,.35-.145.494.494,0,0,0,.145-.35v-6.811A5.734,5.734,0,0,0,254.713-347.5Z" transform="translate(-227.203 354.37)"/><path class="b" d="M114.421-393.03h-2.85a.5.5,0,0,0-.5.5v10.14a4.188,4.188,0,0,1-1.164,3.015,3.743,3.743,0,0,1-2.8,1.212,3.754,3.754,0,0,1-2.809-1.219,4.181,4.181,0,0,1-1.169-3.008v-10.14a.494.494,0,0,0-.145-.351.5.5,0,0,0-.35-.145H99.784a.5.5,0,0,0-.5.5v10.14a7.419,7.419,0,0,0,2.23,5.486,7.622,7.622,0,0,0,5.587,2.208,7.61,7.61,0,0,0,5.586-2.208,7.414,7.414,0,0,0,2.23-5.486v-10.14a.5.5,0,0,0-.147-.352A.5.5,0,0,0,114.421-393.03Z" transform="translate(-99.286 393.28)"/></g><g transform="translate(-4.002 2.829)"><g transform="translate(11.071 14.238)"><g transform="translate(0 0)"><g class="c"><g transform="translate(0.008 0.164)"><path class="a" d="M-222.492,541.974l-5.422-3.13a.226.226,0,0,0-.339.2l-.008,2.884a4.858,4.858,0,0,0,2.429,4.221l2.985,1.724a.226.226,0,0,0,.339-.2l.016-5.7" transform="translate(228.261 -538.813)"/></g></g></g></g><path class="b" d="M-269.978,508.577V525.87a5.229,5.229,0,0,0,2.539,4.484l14.979,8.988a.226.226,0,0,0,.342-.194V533.8a4.742,4.742,0,0,0-2.1-3.935l-3.65-2.455a.226.226,0,0,0-.352.185l-.043,3.576a.226.226,0,0,1-.343.19L-264,528.088a5.182,5.182,0,0,1-2.438-4.531l.124-4.809a.226.226,0,0,1,.334-.192l3.175,1.74a.226.226,0,0,0,.334-.2v-4.626a5.139,5.139,0,0,0-2.582-4.457l-4.591-2.633A.226.226,0,0,0-269.978,508.577Z" transform="translate(269.978 -502.038)"/><path class="a" d="M-227.956,511.983l8.708,4.832a5.613,5.613,0,0,1,2.888,5l-.18,10.425a.226.226,0,0,1-.341.191l-.883-.524a5.5,5.5,0,0,1-2.692-4.81l.055-3.681a4.23,4.23,0,0,0-2.16-3.752l-3.57-2a4.231,4.231,0,0,1-2.16-3.689v-1.8A.226.226,0,0,1-227.956,511.983Z" transform="translate(239.362 -504.684)"/><path class="a" d="M-227.725,484.807a.226.226,0,0,1,.338-.2l14.72,8.461a5.225,5.225,0,0,1,2.689,4.659l-.17,17.111a.226.226,0,0,1-.341.192l-.8-.472a5.118,5.118,0,0,1-2.507-4.478l.051-10.862a3.939,3.939,0,0,0-2.011-3.494l-9.963-5.848a3.938,3.938,0,0,1-2.011-3.434Z" transform="translate(238.946 -484.581)"/></g></g></svg>